<svg aria-hidden="true" style="width:0;height:0;position:absolute;overflow:hidden" xmlns="http://www.w3.org/2000/svg"><defs><symbol id="icon-logo" viewBox="0 0 41 32"><path d="M38.196.196C34.335.417 26.664 1.215 21.928 4.12c-.328.2-.513.557-.513.929v25.676c0 .815.89 1.331 1.64.952 4.872-2.457 11.921-3.128 15.405-3.31 1.19-.062 2.115-1.018 2.115-2.164V2.364c0-1.25-1.081-2.24-2.379-2.168zM18.649 4.121C13.913 1.215 6.24.417 2.381.197c-1.3-.073-2.38.917-2.38 2.167v23.84c0 1.146.925 2.101 2.115 2.164 3.486.183 10.537.854 15.412 3.314.747.377 1.634-.137 1.634-.951V5.03c0-.383-.203-.72-.507-.907l-.005-.003z"/></symbol><symbol id="icon-for-read-more" fill="currentColor" viewBox="0 0 24 32"><path d="M21.029 17.595 8.277 30.342a2.235 2.235 0 0 1-3.178.001l-2.117-2.117c-.408-.406-.66-.967-.66-1.588s.252-1.182.66-1.588l9.037-9.04-9.037-9.037c-.408-.406-.66-.967-.66-1.588s.252-1.182.66-1.588l2.109-2.141c.406-.409.968-.661 1.589-.661s1.183.253 1.589.661l12.749 12.749c.891.88.891 2.307.011 3.189z"/></symbol><symbol id="icon-facebook" viewBox="0 0 32 32"><path d="M31.5 16.343c0-8.562-6.938-15.5-15.5-15.5S.5 7.781.5 16.343c0 7.75 5.625 14.188 13.062 15.312V20.843H9.624v-4.5h3.938v-3.375c0-3.876 2.313-6.063 5.812-6.063 1.751 0 3.501.313 3.501.313v3.813h-1.938c-1.937 0-2.562 1.187-2.562 2.437v2.875h4.312l-.688 4.5h-3.624v10.812C25.812 30.53 31.5 24.093 31.5 16.343z"/></symbol><symbol id="icon-twitter" viewBox="0 0 37 32"><path d="M33.469 8.284c1.458-1.094 2.771-2.406 3.792-3.938a14.363 14.363 0 0 1-4.375 1.167c1.604-.948 2.771-2.406 3.355-4.229a15.87 15.87 0 0 1-4.705 1.875l-.108.02A7.635 7.635 0 0 0 25.856.774h-.045.002-.001a7.655 7.655 0 0 0-7.655 7.655c0 .583.074 1.167.22 1.75A22.202 22.202 0 0 1 2.583 2.194l-.029-.036c-.657 1.094-1.021 2.406-1.021 3.865a7.536 7.536 0 0 0 3.426 6.345c-1.239-.074-2.479-.365-3.499-.948v.073c0 3.719 2.624 6.782 6.124 7.51-.582.146-1.312.292-1.968.292-.511 0-.948-.074-1.459-.146.949 3.062 3.792 5.25 7.147 5.323-2.625 2.043-5.906 3.282-9.479 3.282-.656 0-1.239-.074-1.823-.146 3.355 2.187 7.364 3.427 11.74 3.427 14.073 0 21.729-11.595 21.729-21.729V8.285z"/></symbol><symbol id="icon-youtube" viewBox="0 0 45 32"><path d="M43.665 5.831c-.486-1.944-2.027-3.484-3.89-3.97C36.292.889 22.519.889 22.519.889s-13.855 0-17.338.972c-1.862.486-3.403 2.027-3.889 3.97C.32 9.232.32 16.525.32 16.525s0 7.211.972 10.695c.486 1.944 2.025 3.401 3.889 3.889C8.665 32 22.519 32 22.519 32s13.773 0 17.256-.891c1.864-.486 3.404-1.944 3.89-3.889.972-3.484.972-10.695.972-10.695s0-7.291-.972-10.694zM17.982 23.087V9.962l11.505 6.562-11.505 6.562z"/></symbol><symbol id="icon-linkedin" viewBox="0 0 32 32"><path d="M7.25 32V10.901H.688V32H7.25zM3.934 8.078c2.116 0 3.81-1.764 3.81-3.881 0-2.046-1.693-3.74-3.81-3.74-2.047 0-3.74 1.694-3.74 3.74 0 2.117 1.693 3.881 3.74 3.881zM31.736 32h.071V20.428c0-5.646-1.271-10.021-7.904-10.021-3.175 0-5.292 1.764-6.209 3.387h-.071v-2.893h-6.28V32h6.563V21.557c0-2.752.493-5.363 3.881-5.363 3.386 0 3.458 3.104 3.458 5.574V32h6.491z"/></symbol><symbol id="icon-warning" viewBox="0 0 13 12"><path d="M13 11.04c0 .312-.107.55-.321.714a1.258 1.258 0 0 1-.789.246H1.11c-.312 0-.575-.084-.789-.252C.107 11.58 0 11.344 0 11.04c0-.24.07-.484.21-.732L5.595.66c.257-.44.56-.66.91-.66.351 0 .647.22.889.66l5.396 9.66c.14.256.21.496.21.72ZM7.312 4.908V3.156H5.688v1.752c0 .112.008.218.024.318.015.1.037.212.064.336.027.124.048.23.064.318l.304 1.944h.689l.315-1.944a7.18 7.18 0 0 1 .07-.312c.031-.128.055-.242.07-.342.016-.1.024-.206.024-.318Zm0 4.644a.8.8 0 0 0-.24-.588.787.787 0 0 0-.578-.24.774.774 0 0 0-.566.24.8.8 0 0 0-.24.588c0 .232.08.43.24.594.16.164.348.246.566.246a.777.777 0 0 0 .578-.246.82.82 0 0 0 .24-.594Z"/></symbol></defs></svg>